<svg width="21" height="20" viewBox="0 0 21 20" fill="none" xmlns="http://www.w3.org/2000/svg">
<path d="M20.9336 10.3656C20.9178 9.92506 20.7749 9.49854 20.5221 9.13745C20.2692 8.77637 19.9173 8.49614 19.5088 8.33056C19.1003 8.16498 18.6526 8.12112 18.2198 8.20428C17.7869 8.28744 17.3873 8.49407 17.0692 8.79924C15.29 7.59074 13.1983 6.92432 11.0479 6.88074L12.062 2.00225L15.4084 2.70525C15.4483 3.07546 15.6188 3.41934 15.8893 3.67522C16.1598 3.9311 16.5127 4.08224 16.8845 4.10153C17.2564 4.12082 17.6229 4.00701 17.9185 3.7805C18.214 3.55399 18.4192 3.22959 18.4972 2.8655C18.5752 2.50141 18.521 2.12144 18.3442 1.79372C18.1674 1.466 17.8797 1.21197 17.5326 1.07719C17.1855 0.942421 16.8017 0.935706 16.4501 1.05827C16.0985 1.18084 15.802 1.42466 15.6139 1.746L11.7769 0.979984C11.7147 0.96604 11.6502 0.96452 11.5874 0.975509C11.5245 0.986498 11.4645 1.00977 11.4106 1.04401C11.3568 1.07825 11.3102 1.12279 11.2736 1.17505C11.237 1.22732 11.211 1.2863 11.1973 1.34861V1.35682L10.0434 6.78345C7.86706 6.81675 5.74753 7.4834 3.94396 8.70194C3.72679 8.48994 3.46953 8.32336 3.18723 8.21196C2.90492 8.10055 2.60323 8.04654 2.29981 8.0531C1.99638 8.05967 1.69733 8.12665 1.4201 8.25016C1.14288 8.37367 0.893063 8.55122 0.685262 8.77241C0.47746 8.9936 0.315848 9.25401 0.209873 9.5384C0.103898 9.82279 0.0556848 10.1254 0.0680612 10.4287C0.0804376 10.7319 0.153152 11.0297 0.28195 11.3045C0.410747 11.5793 0.59303 11.8256 0.818166 12.0292C0.998307 12.1997 1.20586 12.3386 1.4321 12.4403C1.41668 12.6684 1.41668 12.8973 1.4321 13.1255C1.4321 16.6281 5.51302 19.4771 10.5477 19.4771C15.5824 19.4771 19.6633 16.6322 19.6633 13.1255C19.6787 12.8973 19.6787 12.6684 19.6633 12.4403C20.0491 12.2494 20.3731 11.9533 20.5979 11.5862C20.8226 11.2191 20.939 10.796 20.9336 10.3656ZM5.29514 11.9332C5.29514 11.6235 5.387 11.3206 5.55911 11.063C5.73122 10.8055 5.97583 10.6047 6.26204 10.4861C6.54825 10.3676 6.86319 10.3366 7.16703 10.397C7.47086 10.4574 7.74995 10.6066 7.96901 10.8257C8.18806 11.0447 8.33723 11.3238 8.39766 11.6277C8.4581 11.9315 8.4271 12.2464 8.30855 12.5327C8.18999 12.8189 7.98924 13.0635 7.73166 13.2356C7.47408 13.4077 7.17124 13.4996 6.86145 13.4996C6.44626 13.4988 6.04829 13.3336 5.7547 13.04C5.46112 12.7464 5.29587 12.3484 5.29514 11.9332ZM14.3792 16.2321C13.2436 17.0167 11.8959 17.437 10.5155 17.437C9.13513 17.437 7.78745 17.0167 6.65178 16.2321C6.58365 16.1512 6.54834 16.0477 6.55284 15.9421C6.55734 15.8365 6.60132 15.7364 6.67608 15.6616C6.75084 15.5869 6.85094 15.5429 6.95657 15.5384C7.0622 15.5339 7.16568 15.5692 7.24653 15.6373C8.21396 16.2737 9.34536 16.6154 10.5033 16.621C11.6612 16.6266 12.7959 16.2958 13.7694 15.6688C13.853 15.5907 13.9639 15.5485 14.0782 15.5512C14.1926 15.5539 14.3013 15.6013 14.3811 15.6832C14.4609 15.7652 14.5054 15.8751 14.5051 15.9895C14.5047 16.1039 14.4595 16.2136 14.3792 16.2951V16.2334V16.2321ZM14.1052 13.5544C13.8969 13.3523 13.7762 13.0766 13.7689 12.7865C13.7617 12.4964 13.8684 12.215 14.0663 12.0027C14.2642 11.7905 14.5375 11.6643 14.8274 11.6513C15.1173 11.6382 15.4008 11.7394 15.6169 11.933C15.8331 12.1267 15.9647 12.3973 15.9835 12.6869C16.0023 12.9765 15.9068 13.2619 15.7175 13.4819C15.5282 13.7018 15.2602 13.8388 14.9711 13.8634C14.6819 13.888 14.3946 13.7982 14.1709 13.6133H14.0928L14.1052 13.5544Z" fill="black"/>
</svg>
