<svg width="198" height="50" viewBox="0 0 198 50" fill="none" xmlns="http://www.w3.org/2000/svg">
<g clip-path="url(#clip0_1_2116)">
<path d="M75.2793 10.4355L74.4004 11.6043C74.6622 11.1918 74.9561 10.8009 75.2793 10.4355Z" fill="#0788BE"/>
<path d="M91.0125 25.4925C90.5139 24.9929 89.8643 24.6764 89.1671 24.5934C88.47 24.5104 87.7654 24.6657 87.1657 25.0345C85.3311 26.1289 83.1851 26.5657 81.0746 26.2743C78.9641 25.9828 77.0125 24.9802 75.5355 23.4284C74.0585 21.8767 73.1424 19.8666 72.9354 17.7233C72.7284 15.58 73.2425 13.4287 74.3947 11.6174L67.2148 21.2274C67.8915 23.5699 69.0895 25.7247 70.7172 27.5267C72.345 29.3287 74.3591 30.7301 76.6054 31.6234C78.8516 32.5168 81.2704 32.8784 83.6763 32.6805C86.0821 32.4827 88.4113 31.7306 90.4852 30.482C90.8908 30.2341 91.2352 29.896 91.4921 29.4933C91.749 29.0906 91.9117 28.6339 91.9677 28.1581C92.0238 27.6823 91.9718 27.1998 91.8156 26.7473C91.6595 26.2949 91.4033 25.8844 91.0666 25.5471L91.0125 25.4925ZM69.2092 7.94022L70.3383 6.42285C69.9352 6.90772 69.5583 7.41425 69.2092 7.94022Z" fill="#F36B21"/>
<path d="M91.0934 7.98826L91.0393 8.03611C90.5407 8.53569 89.8911 8.85219 89.1939 8.93519C88.4968 9.01818 87.7922 8.86288 87.1924 8.49405C85.2963 7.37309 83.0736 6.95375 80.9052 7.3079C78.7368 7.66205 76.7577 8.76764 75.3071 10.4352C74.9839 10.8029 74.69 11.1961 74.4282 11.6108L67.2146 21.2276L62.1373 28.0626C60.6723 29.5476 58.9314 30.7251 57.0146 31.5274C55.0979 32.3298 53.0432 32.7411 50.9686 32.7377H50.732C48.3094 32.7009 45.9277 32.1013 43.771 30.9853C41.6142 29.8693 39.7402 28.2667 38.2939 26.3016C36.8476 24.3364 35.8676 22.0614 35.4299 19.6522C34.9921 17.2431 35.1083 14.7644 35.7694 12.4079C36.4304 10.0514 37.6187 7.88011 39.2423 6.06201C40.8659 4.2439 42.8814 2.82766 45.1328 1.92277C47.3843 1.01788 49.8114 0.648591 52.2266 0.843457C54.6417 1.03832 56.9802 1.79212 59.0612 3.04657C59.4674 3.29461 59.8124 3.63298 60.07 4.03598C60.3275 4.43898 60.4908 4.89601 60.5475 5.37237C60.6042 5.84873 60.5528 6.33189 60.3972 6.78516C60.2416 7.23842 59.9858 7.64987 59.6494 7.98826L59.5953 8.03611C59.0967 8.53569 58.4471 8.85219 57.7499 8.93519C57.0527 9.01818 56.3482 8.86288 55.7484 8.49405C54.2342 7.60068 52.5043 7.15006 50.7516 7.19243C48.9989 7.23479 47.2923 7.76848 45.822 8.73398C44.3518 9.69949 43.1757 11.0589 42.4248 12.6606C41.674 14.2622 41.3779 16.0433 41.5696 17.8051C41.7614 19.5669 42.4334 21.2403 43.5107 22.6387C44.588 24.037 46.0283 25.1054 47.671 25.7246C49.3137 26.3439 51.0943 26.4897 52.8142 26.1458C54.5341 25.8019 56.1257 24.9819 57.4116 23.7771L57.54 23.5994L69.209 7.94042L70.338 6.42305C71.821 4.65595 73.667 3.23672 75.7476 2.26409C77.8282 1.29145 80.0934 0.788775 82.3856 0.791023H82.46C85.2869 0.799631 88.0592 1.57884 90.4849 3.04657C90.8916 3.29375 91.2373 3.63116 91.496 4.03329C91.7547 4.43542 91.9196 4.89175 91.9782 5.36777C92.0368 5.8438 91.9876 6.32707 91.8343 6.78105C91.681 7.23503 91.4277 7.64783 91.0934 7.98826Z" fill="#0788BE"/>
<path d="M16.4552 0.797865C13.3312 0.801919 10.2785 1.74218 7.6829 3.49982C5.08732 5.25746 3.06538 7.75357 1.87264 10.6727C0.679908 13.5918 0.369912 16.8028 0.981838 19.9C1.59376 22.9972 3.10014 25.8415 5.31058 28.0733C7.52102 30.3052 10.3363 31.8245 13.4006 32.4391C16.4649 33.0538 19.6407 32.7363 22.5265 31.5267C25.4123 30.3171 27.8787 28.2698 29.6139 25.6434C31.3491 23.017 32.2753 19.9296 32.2753 16.7712C32.2753 14.6718 31.8659 12.5931 31.0707 10.6537C30.2754 8.71443 29.1098 6.95263 27.6405 5.4691C26.1712 3.98556 24.427 2.8094 22.5078 2.00787C20.5885 1.20634 18.5318 0.79517 16.4552 0.797865ZM16.4552 26.3402C14.5832 26.3402 12.7533 25.779 11.1968 24.7275C9.64028 23.6761 8.42713 22.1816 7.71074 20.4331C6.99436 18.6846 6.80692 16.7606 7.17213 14.9044C7.53734 13.0482 8.43879 11.3432 9.76249 10.0049C11.0862 8.66669 12.7727 7.75533 14.6087 7.38611C16.4447 7.01689 18.3478 7.20639 20.0773 7.93064C21.8068 8.65489 23.2851 9.88137 24.3251 11.455C25.3651 13.0286 25.9202 14.8787 25.9202 16.7712C25.9202 19.3091 24.923 21.743 23.148 23.5375C21.373 25.332 18.9655 26.3402 16.4552 26.3402Z" fill="#0788BE"/>
<path d="M110.328 0.797852C107.828 0.811236 105.367 1.42407 103.147 2.58601C100.927 3.74794 99.0117 5.42581 97.5579 7.48174C96.1042 9.53767 95.1537 11.913 94.7847 14.4125C94.4156 16.912 94.6384 19.4644 95.4348 21.86C96.2312 24.2555 97.5785 26.4258 99.3659 28.1926C101.153 29.9593 103.33 31.2721 105.717 32.023C108.104 32.7739 110.633 32.9415 113.096 32.512C115.559 32.0826 117.887 31.0683 119.887 29.5526C119.886 29.9676 119.966 30.3786 120.123 30.7621C120.28 31.1456 120.51 31.4941 120.8 31.7875C121.09 32.0809 121.435 32.3135 121.814 32.4719C122.194 32.6302 122.6 32.7113 123.011 32.7104H123.092C123.505 32.7149 123.915 32.6366 124.297 32.4799C124.68 32.3232 125.029 32.0913 125.322 31.7977C125.616 31.504 125.849 31.1544 126.008 30.769C126.167 30.3836 126.249 29.9702 126.249 29.5526V17.0309C126.261 14.9074 125.858 12.8024 125.063 10.8366C124.269 8.87071 123.099 7.08261 121.62 5.57469C120.141 4.06676 118.382 2.86864 116.444 2.04895C114.507 1.22926 112.428 0.804113 110.328 0.797852ZM110.422 26.3402C108.55 26.3402 106.72 25.779 105.164 24.7275C103.607 23.6761 102.394 22.1816 101.678 20.4331C100.961 18.6846 100.774 16.7606 101.139 14.9044C101.504 13.0482 102.406 11.3432 103.729 10.0049C105.053 8.66667 106.74 7.75532 108.576 7.3861C110.412 7.01688 112.315 7.20637 114.044 7.93063C115.774 8.65488 117.252 9.88136 118.292 11.455C119.332 13.0286 119.887 14.8786 119.887 16.7712C119.887 19.3091 118.89 21.743 117.115 23.5375C115.34 25.332 112.932 26.3402 110.422 26.3402Z" fill="#0788BE"/>
<path d="M169.18 12.0687V29.5185C169.18 30.365 168.847 31.1769 168.255 31.7755C167.663 32.3741 166.86 32.7104 166.023 32.7104C165.185 32.7104 164.382 32.3741 163.79 31.7755C163.198 31.1769 162.866 30.365 162.866 29.5185V11.9936C162.866 10.7246 162.367 9.50768 161.479 8.61041C160.592 7.71315 159.388 7.20907 158.133 7.20907C156.918 7.23232 155.76 7.73635 154.908 8.61297C154.056 9.48959 153.578 10.6689 153.576 11.8979V29.5185C153.576 30.365 153.244 31.1769 152.652 31.7755C152.06 32.3741 151.257 32.7104 150.419 32.7104C149.582 32.7104 148.779 32.3741 148.187 31.7755C147.595 31.1769 147.262 30.365 147.262 29.5185V11.9936C147.262 10.7246 146.763 9.50768 145.876 8.61041C144.988 7.71315 143.785 7.20907 142.529 7.20907C141.315 7.23234 140.157 7.7366 139.307 8.61341C138.456 9.49022 137.979 10.6696 137.979 11.8979V29.5185C137.979 30.365 137.647 31.1769 137.055 31.7755C136.463 32.3741 135.66 32.7104 134.822 32.7104C134.407 32.7113 133.996 32.6294 133.612 32.4694C133.228 32.3094 132.879 32.0744 132.585 31.7779C132.291 31.4814 132.058 31.1292 131.899 30.7415C131.74 30.3538 131.658 29.9382 131.658 29.5185V12.0687C131.655 9.08668 132.822 6.22503 134.903 4.11191C136.984 1.9988 139.81 0.806902 142.759 0.797852C145.647 0.827335 148.404 2.01478 150.426 4.09915C152.454 2.01586 155.215 0.828952 158.106 0.797852C161.051 0.814119 163.87 2.0092 165.945 4.12153C168.021 6.23386 169.184 9.0914 169.18 12.0687Z" fill="#0788BE"/>
<path d="M187.333 13.7708C181.492 12.4038 180.849 11.4401 180.849 9.79968V9.71766C180.849 8.0636 182.526 6.90848 184.906 6.90848C186.435 6.92347 187.942 7.27815 189.32 7.9474C189.577 8.0636 190.443 8.59672 191.349 9.16403C192.056 9.60997 192.909 9.7574 193.723 9.57463C194.537 9.39187 195.248 8.8935 195.703 8.18663C195.934 7.8276 196.092 7.42553 196.167 7.00396C196.243 6.5824 196.234 6.14982 196.143 5.7316C196.051 5.31337 195.877 4.9179 195.632 4.56836C195.387 4.21883 195.075 3.92226 194.715 3.69604C193.81 3.12874 192.971 2.60928 192.687 2.48625C190.285 1.3225 187.65 0.733158 184.987 0.763834C178.605 0.763834 174.17 4.63243 174.17 10.1756V10.2918C174.17 16.2382 177.983 18.3297 184.588 19.9428C189.8 21.1594 190.673 22.1095 190.673 23.7841V23.8729C190.673 25.6705 188.861 26.8871 186.163 26.8871C184.618 26.7675 183.106 26.367 181.701 25.7047C180.433 25.1184 179.199 24.4612 178.003 23.7362C177.297 23.3118 176.457 23.1794 175.657 23.3666C174.857 23.5538 174.159 24.0462 173.71 24.741V24.782C173.482 25.1378 173.326 25.5357 173.251 25.9529C173.176 26.37 173.183 26.798 173.272 27.2123C173.361 27.6266 173.531 28.0189 173.771 28.3666C174.011 28.7144 174.316 29.0106 174.67 29.2384C175.779 29.9219 176.888 30.66 177.259 30.8514C179.972 32.2833 182.988 33.0314 186.048 33.0318C192.91 33.0318 197.345 29.2315 197.345 23.3603V23.2783C197.339 18.2682 194.438 15.5206 187.333 13.7708Z" fill="#0788BE"/>
<path d="M94.623 38.999C94.623 38.8866 94.6672 38.7788 94.7458 38.6993C94.8244 38.6198 94.931 38.5752 95.0422 38.5752C95.1534 38.5752 95.26 38.6198 95.3386 38.6993C95.4172 38.7788 95.4614 38.8866 95.4614 38.999C95.4614 39.1114 95.4172 39.2191 95.3386 39.2986C95.26 39.3781 95.1534 39.4227 95.0422 39.4227C94.931 39.4227 94.8244 39.3781 94.7458 39.2986C94.6672 39.2191 94.623 39.1114 94.623 38.999ZM94.7853 40.7829H95.2856V46.8387H94.7853V40.7829Z" fill="#828383"/>
<path d="M101.735 43.291C101.735 41.8215 100.931 41.0628 99.7071 41.0628C98.4835 41.0628 97.5775 41.8556 97.5775 43.537V46.8042H97.084V40.7484H97.5775V42.0333C97.7537 41.5941 98.0619 41.2219 98.4585 40.9693C98.8552 40.7166 99.3203 40.5963 99.7883 40.6253C101.14 40.6253 102.202 41.4455 102.202 43.2568V46.8042H101.715L101.735 43.291Z" fill="#828383"/>
<path d="M106.568 40.6732C107.207 40.6056 107.848 40.784 108.363 41.1729C108.878 41.5618 109.229 42.1326 109.346 42.7716H108.826C108.722 42.2657 108.438 41.8159 108.028 41.5073C107.618 41.1987 107.111 41.0527 106.602 41.097C105.317 41.097 104.208 41.9582 104.208 43.7695C104.208 45.5807 105.317 46.4624 106.602 46.4624C107.111 46.5082 107.619 46.3628 108.03 46.054C108.44 45.7451 108.723 45.2945 108.826 44.7879H109.346C109.225 45.4188 108.878 45.9824 108.372 46.3708C107.865 46.7592 107.235 46.9452 106.602 46.8931C104.911 46.8931 103.701 45.7106 103.701 43.7695C103.701 41.8283 104.878 40.6732 106.568 40.6732Z" fill="#828383"/>
<path d="M113.403 46.8929C111.727 46.8929 110.496 45.7104 110.496 43.7693C110.496 41.8282 111.706 40.6731 113.403 40.6731C113.765 40.6504 114.128 40.7037 114.469 40.8297C114.81 40.9557 115.121 41.1517 115.384 41.4053C115.646 41.6589 115.853 41.9646 115.993 42.3032C116.133 42.6419 116.202 43.006 116.195 43.3729C116.207 43.5732 116.207 43.774 116.195 43.9744H111.023C111.005 44.2991 111.053 44.6242 111.165 44.9292C111.276 45.2342 111.45 45.5124 111.673 45.7463C111.897 45.9801 112.166 46.1645 112.464 46.2877C112.762 46.411 113.082 46.4704 113.403 46.4623C113.909 46.5096 114.414 46.3692 114.825 46.0673C115.235 45.7654 115.523 45.3227 115.634 44.8219H116.148C116.02 45.4465 115.67 46.002 115.164 46.3836C114.658 46.7651 114.032 46.9463 113.403 46.8929ZM111.003 43.5574H115.695C115.733 43.2367 115.701 42.9114 115.601 42.6046C115.501 42.2978 115.336 42.017 115.117 41.7821C114.897 41.5473 114.629 41.3641 114.332 41.2457C114.035 41.1273 113.715 41.0764 113.396 41.0968C113.077 41.0879 112.76 41.1459 112.464 41.2672C112.168 41.3885 111.9 41.5705 111.677 41.8016C111.454 42.0328 111.281 42.3082 111.168 42.6104C111.056 42.9125 111.006 43.235 111.023 43.5574H111.003Z" fill="#828383"/>
<path d="M120.746 40.6727C121.145 40.6603 121.542 40.7338 121.911 40.8883C122.28 41.0427 122.612 41.2746 122.885 41.5687C123.159 41.8627 123.368 42.2121 123.498 42.5937C123.628 42.9754 123.676 43.3806 123.639 43.7826C123.639 45.6895 122.422 46.9062 120.746 46.9062C120.203 46.9314 119.666 46.7832 119.211 46.4826C118.756 46.1821 118.406 45.7444 118.211 45.2316V49.6743H117.717V40.7888H118.211V42.3472C118.402 41.832 118.751 41.3919 119.207 41.0908C119.663 40.7897 120.202 40.6432 120.746 40.6727ZM120.671 41.1101C119.994 41.1447 119.356 41.4411 118.889 41.9378C118.422 42.4346 118.162 43.0938 118.162 43.7792C118.162 44.4645 118.422 45.1237 118.889 45.6205C119.356 46.1172 119.994 46.4136 120.671 46.4482C122.125 46.4482 123.132 45.4435 123.132 43.7689C123.132 42.0943 122.125 41.1101 120.671 41.1101Z" fill="#828383"/>
<path d="M125.384 41.1862H124.479V40.7488H125.384V39.2109H125.878V40.7488H127.656V41.1862H125.878V45.1915C125.878 46.1006 126.175 46.3603 126.98 46.3603H127.656V46.8046H126.926C125.898 46.8046 125.405 46.3808 125.405 45.1915L125.384 41.1862Z" fill="#828383"/>
<path d="M128.798 38.999C128.79 38.9393 128.795 38.8786 128.813 38.8211C128.83 38.7635 128.86 38.7104 128.899 38.6652C128.938 38.6201 128.987 38.5839 129.041 38.5591C129.095 38.5343 129.154 38.5215 129.214 38.5215C129.273 38.5215 129.332 38.5343 129.386 38.5591C129.44 38.5839 129.489 38.6201 129.528 38.6652C129.568 38.7104 129.597 38.7635 129.614 38.8211C129.632 38.8786 129.637 38.9393 129.629 38.999C129.629 39.1114 129.585 39.2191 129.507 39.2986C129.428 39.3781 129.321 39.4227 129.21 39.4227C129.099 39.4227 128.992 39.3781 128.914 39.2986C128.835 39.2191 128.791 39.1114 128.791 38.999H128.798ZM128.967 40.7829H129.46V46.8387H128.953L128.967 40.7829Z" fill="#828383"/>
<path d="M133.915 46.8927C133.514 46.9044 133.116 46.8308 132.745 46.6768C132.374 46.5227 132.04 46.2915 131.763 45.9982C131.486 45.705 131.274 45.3562 131.139 44.9746C131.004 44.5929 130.95 44.1869 130.981 43.7828C131.007 43.198 131.203 42.634 131.544 42.1609C131.885 41.6877 132.356 41.3263 132.898 41.1214C133.441 40.9166 134.031 40.8774 134.595 41.0088C135.159 41.1401 135.673 41.4362 136.072 41.8602C136.471 42.2842 136.739 42.8174 136.841 43.3937C136.942 43.9699 136.875 44.5637 136.646 45.1013C136.416 45.6389 136.036 46.0966 135.552 46.4175C135.068 46.7385 134.501 46.9084 133.922 46.9064L133.915 46.8927ZM133.915 46.4484C134.257 46.4586 134.597 46.3953 134.912 46.2627C135.228 46.1301 135.512 45.9312 135.746 45.6792C135.98 45.4272 136.159 45.1278 136.269 44.8009C136.38 44.4739 136.421 44.1269 136.39 43.7828C136.407 43.4465 136.357 43.1101 136.241 42.7941C136.126 42.4781 135.948 42.1892 135.719 41.9448C135.49 41.7005 135.214 41.506 134.908 41.373C134.602 41.2401 134.272 41.1715 133.939 41.1715C133.606 41.1715 133.276 41.2401 132.97 41.373C132.664 41.506 132.388 41.7005 132.158 41.9448C131.929 42.1892 131.751 42.4781 131.636 42.7941C131.521 43.1101 131.471 43.4465 131.488 43.7828C131.481 45.6146 132.658 46.4484 133.915 46.4484Z" fill="#828383"/>
<path d="M143.022 43.2911C143.022 41.8216 142.217 41.0629 140.994 41.0629C139.77 41.0629 138.864 41.8558 138.864 43.5372V46.8043H138.418V40.7485H138.918V42.0335C139.092 41.5942 139.399 41.2216 139.795 40.9688C140.191 40.716 140.655 40.5959 141.122 40.6255C142.474 40.6255 143.536 41.4457 143.536 43.257V46.8043H143.049L143.022 43.2911Z" fill="#828383"/>
<path d="M148.621 41.1862H147.715V40.7488H148.621V39.2109H149.114V40.7488H150.892V41.1862H149.114V45.1915C149.114 46.1006 149.412 46.3603 150.216 46.3603H150.892V46.8046H150.142C149.114 46.8046 148.621 46.3808 148.621 45.1915V41.1862Z" fill="#828383"/>
<path d="M154.84 46.8925C154.024 46.8925 153.242 46.5649 152.665 45.9816C152.088 45.3984 151.764 44.6074 151.764 43.7826C151.764 42.9578 152.088 42.1668 152.665 41.5835C153.242 41.0003 154.024 40.6727 154.84 40.6727C155.243 40.6548 155.646 40.724 156.021 40.8756C156.396 41.0271 156.735 41.2577 157.015 41.5518C157.295 41.846 157.51 42.197 157.646 42.5817C157.781 42.9663 157.834 43.3757 157.801 43.7826C157.829 44.1883 157.772 44.5954 157.634 44.9775C157.497 45.3597 157.282 45.7085 157.003 46.0015C156.724 46.2945 156.387 46.5251 156.015 46.6786C155.642 46.832 155.242 46.9049 154.84 46.8925ZM154.84 46.4482C155.181 46.4575 155.52 46.3934 155.835 46.2604C156.15 46.1273 156.433 45.9283 156.667 45.6764C156.9 45.4245 157.078 45.1254 157.188 44.799C157.299 44.4725 157.339 44.1261 157.308 43.7826C157.333 43.4413 157.288 43.0984 157.176 42.7754C157.064 42.4524 156.887 42.1563 156.657 41.9055C156.427 41.6547 156.148 41.4546 155.837 41.3178C155.527 41.181 155.192 41.1104 154.853 41.1104C154.515 41.1104 154.18 41.181 153.87 41.3178C153.559 41.4546 153.28 41.6547 153.05 41.9055C152.82 42.1563 152.643 42.4524 152.531 42.7754C152.419 43.0984 152.374 43.4413 152.399 43.7826C152.399 45.6144 153.582 46.4482 154.84 46.4482Z" fill="#828383"/>
<path d="M162.115 38.9989C162.115 38.8637 162.155 38.7316 162.229 38.6192C162.303 38.5068 162.409 38.4192 162.533 38.3675C162.656 38.3157 162.792 38.3022 162.923 38.3286C163.054 38.3549 163.175 38.42 163.269 38.5156C163.364 38.6112 163.428 38.733 163.454 38.8656C163.48 38.9982 163.467 39.1356 163.416 39.2605C163.365 39.3854 163.278 39.4921 163.167 39.5672C163.056 39.6423 162.925 39.6824 162.791 39.6824C162.612 39.6824 162.44 39.6104 162.313 39.4822C162.186 39.3541 162.115 39.1802 162.115 38.9989ZM162.284 40.6803H163.285V46.7908H162.284V40.6803Z" fill="#828383"/>
<path d="M169.416 43.3457C169.416 42.1018 168.74 41.4661 167.725 41.4661C166.711 41.4661 165.995 42.1086 165.995 43.4278V46.8042H164.994V40.6938H165.995V41.5686C166.209 41.2521 166.5 40.9957 166.839 40.8236C167.179 40.6515 167.556 40.5692 167.935 40.5844C168.275 40.5636 168.616 40.618 168.933 40.7439C169.251 40.8698 169.537 41.0641 169.773 41.3132C170.008 41.5624 170.187 41.8605 170.297 42.1867C170.407 42.5129 170.445 42.8595 170.409 43.2022V46.8042H169.416V43.3457Z" fill="#828383"/>
<path d="M172.221 41.5347H171.443V40.694H172.221V40.2634C172.221 38.8964 172.897 38.2881 174.425 38.2881V39.1356C173.519 39.1356 173.221 39.4705 173.221 40.2634V40.694H176.649V46.8045H175.669V41.5347H173.242V46.8045H172.221V41.5347ZM175.5 38.9989C175.5 38.8637 175.539 38.7316 175.614 38.6192C175.688 38.5068 175.794 38.4192 175.917 38.3675C176.041 38.3157 176.177 38.3022 176.308 38.3286C176.439 38.3549 176.559 38.42 176.654 38.5156C176.748 38.6112 176.813 38.733 176.839 38.8656C176.865 38.9982 176.852 39.1356 176.8 39.2605C176.749 39.3854 176.663 39.4921 176.551 39.5672C176.44 39.6423 176.31 39.6824 176.176 39.6824C175.997 39.6824 175.825 39.6104 175.698 39.4822C175.571 39.3541 175.5 39.1802 175.5 38.9989Z" fill="#828383"/>
<path d="M182.769 43.3458C182.769 42.1018 182.093 41.4662 181.086 41.4662C180.078 41.4662 179.355 42.1087 179.355 43.4278V46.8043H178.348V40.6938H179.355V41.5687C179.568 41.2507 179.859 40.9933 180.198 40.821C180.538 40.6487 180.916 40.5673 181.295 40.5845C181.635 40.5635 181.976 40.6179 182.293 40.7438C182.61 40.8697 182.896 41.0641 183.131 41.3135C183.366 41.5628 183.544 41.861 183.654 42.1872C183.763 42.5135 183.8 42.8599 183.763 43.2023V46.8043H182.769V43.3458Z" fill="#828383"/>
<path d="M185.242 38.9989C185.242 38.8637 185.282 38.7316 185.356 38.6192C185.43 38.5068 185.536 38.4192 185.66 38.3675C185.783 38.3157 185.919 38.3022 186.05 38.3286C186.181 38.3549 186.302 38.42 186.396 38.5156C186.491 38.6112 186.555 38.733 186.581 38.8656C186.607 38.9982 186.594 39.1356 186.543 39.2605C186.492 39.3854 186.405 39.4921 186.294 39.5672C186.183 39.6423 186.052 39.6824 185.918 39.6824C185.739 39.6824 185.567 39.6104 185.44 39.4822C185.313 39.3541 185.242 39.1802 185.242 38.9989ZM185.404 40.6803H186.419V46.7908H185.404V40.6803Z" fill="#828383"/>
<path d="M188.339 41.5348H187.555V40.6941H188.339V39.1562H189.346V40.6941H190.922V41.5348H189.346V45.1505C189.346 45.752 189.563 45.9707 190.185 45.9707H190.922V46.8251H190.016C188.947 46.8251 188.339 46.3808 188.339 45.1505V41.5348Z" fill="#828383"/>
<path d="M196.304 40.6934H197.338L193.701 49.6814H192.667L193.857 46.7355L191.416 40.6934H192.504L194.404 45.6419L196.304 40.6934Z" fill="#828383"/>
</g>
<defs>
<clipPath id="clip0_1_2116">
<rect width="197" height="49" fill="white" transform="translate(0.5 0.722656)"/>
</clipPath>
</defs>
</svg>
