<svg width="197" height="49" viewBox="0 0 197 49" fill="none" xmlns="http://www.w3.org/2000/svg">
<g clip-path="url(#clip0_1_27)">
<path d="M74.7793 9.71289L73.9004 10.8817C74.1622 10.4691 74.4561 10.0783 74.7793 9.71289Z" fill="#0788BE"/>
<path d="M90.5125 24.7698C90.0139 24.2702 89.3643 23.9537 88.6671 23.8707C87.97 23.7877 87.2654 23.943 86.6657 24.3119C84.8311 25.4063 82.6851 25.8431 80.5746 25.5516C78.4641 25.2602 76.5125 24.2575 75.0355 22.7058C73.5585 21.154 72.6424 19.144 72.4354 17.0006C72.2284 14.8573 72.7425 12.7061 73.8947 10.8948L66.7148 20.5048C67.3915 22.8473 68.5895 25.0021 70.2172 26.8041C71.845 28.6061 73.8591 30.0075 76.1054 30.9008C78.3516 31.7941 80.7704 32.1557 83.1763 31.9579C85.5821 31.76 87.9113 31.008 89.9852 29.7593C90.3908 29.5115 90.7352 29.1733 90.9921 28.7706C91.249 28.3679 91.4117 27.9113 91.4677 27.4354C91.5238 26.9596 91.4718 26.4771 91.3156 26.0247C91.1595 25.5722 90.9033 25.1618 90.5666 24.8245L90.5125 24.7698ZM68.7092 7.21756L69.8383 5.7002C69.4352 6.18507 69.0583 6.6916 68.7092 7.21756Z" fill="#F36B21"/>
<path d="M90.5934 7.26559L90.5393 7.31343C90.0407 7.81301 89.3911 8.12952 88.6939 8.21251C87.9968 8.2955 87.2922 8.14021 86.6924 7.77138C84.7963 6.65042 82.5736 6.23108 80.4052 6.58523C78.2368 6.93938 76.2577 8.04496 74.8071 9.71251C74.4839 10.0803 74.19 10.4734 73.9282 10.8881L66.7146 20.505L61.6373 27.3399C60.1723 28.8249 58.4314 30.0024 56.5146 30.8048C54.5979 31.6071 52.5432 32.0184 50.4686 32.0151H50.232C47.8094 31.9782 45.4277 31.3786 43.271 30.2626C41.1142 29.1466 39.2402 27.5441 37.7939 25.5789C36.3476 23.6138 35.3676 21.3387 34.9299 18.9295C34.4921 16.5204 34.6083 14.0417 35.2694 11.6852C35.9304 9.32869 37.1187 7.15744 38.7423 5.33933C40.3659 3.52123 42.3814 2.10498 44.6328 1.2001C46.8843 0.295206 49.3114 -0.0740819 51.7266 0.120783C54.1417 0.315648 56.4802 1.06945 58.5612 2.32389C58.9674 2.57193 59.3124 2.9103 59.57 3.3133C59.8275 3.7163 59.9908 4.17334 60.0475 4.6497C60.1042 5.12606 60.0528 5.60922 59.8972 6.06248C59.7416 6.51575 59.4858 6.9272 59.1494 7.26559L59.0953 7.31343C58.5967 7.81301 57.9471 8.12952 57.2499 8.21251C56.5527 8.2955 55.8482 8.14021 55.2484 7.77138C53.7342 6.87801 52.0043 6.42739 50.2516 6.46975C48.4989 6.51212 46.7923 7.0458 45.322 8.01131C43.8518 8.97681 42.6757 10.3362 41.9248 11.9379C41.174 13.5396 40.8779 15.3206 41.0696 17.0824C41.2614 18.8443 41.9334 20.5177 43.0107 21.916C44.088 23.3143 45.5283 24.3827 47.171 25.002C48.8137 25.6212 50.5943 25.767 52.3142 25.4232C54.0341 25.0793 55.6257 24.2592 56.9116 23.0544L57.04 22.8767L68.709 7.21774L69.838 5.70038C71.321 3.93328 73.167 2.51405 75.2476 1.54141C77.3282 0.56878 79.5934 0.0661015 81.8856 0.0683497H81.96C84.7869 0.0769576 87.5592 0.856164 89.9849 2.32389C90.3916 2.57108 90.7373 2.90849 90.996 3.31062C91.2547 3.71275 91.4196 4.16907 91.4782 4.6451C91.5368 5.12113 91.4876 5.6044 91.3343 6.05837C91.181 6.51235 90.9277 6.92516 90.5934 7.26559Z" fill="white"/>
<path d="M15.9552 0.0751856C12.8312 0.07924 9.77849 1.01951 7.1829 2.77714C4.58732 4.53478 2.56538 7.03089 1.37264 9.95C0.179908 12.8691 -0.130088 16.0802 0.481838 19.1773C1.09376 22.2745 2.60014 25.1188 4.81058 27.3506C7.02102 29.5825 9.8363 31.1018 12.9006 31.7165C15.9649 32.3311 19.1407 32.0136 22.0265 30.804C24.9123 29.5944 27.3787 27.5471 29.1139 24.9207C30.8491 22.2944 31.7753 19.2069 31.7753 16.0485C31.7753 13.9492 31.3659 11.8704 30.5707 9.93106C29.7754 7.99175 28.6098 6.22995 27.1405 4.74642C25.6712 3.26289 23.927 2.08672 22.0078 1.28519C20.0885 0.483665 18.0318 0.0724906 15.9552 0.0751856ZM15.9552 25.6175C14.0832 25.6175 12.2533 25.0563 10.6968 24.0049C9.14028 22.9534 7.92713 21.4589 7.21074 19.7104C6.49436 17.9619 6.30692 16.0379 6.67213 14.1817C7.03734 12.3255 7.93879 10.6205 9.26249 9.28225C10.5862 7.94401 12.2727 7.03265 14.1087 6.66343C15.9447 6.29421 17.8478 6.48371 19.5773 7.20796C21.3068 7.93221 22.7851 9.15869 23.8251 10.7323C24.8651 12.3059 25.4202 14.156 25.4202 16.0485C25.4202 18.5864 24.423 21.0203 22.648 22.8148C20.873 24.6094 18.4655 25.6175 15.9552 25.6175Z" fill="white"/>
<path d="M109.828 0.0751858C107.328 0.0885705 104.867 0.701408 102.647 1.86334C100.427 3.02528 98.5117 4.70314 97.0579 6.75908C95.6042 8.81501 94.6537 11.1903 94.2847 13.6899C93.9156 16.1894 94.1384 18.7418 94.9348 21.1373C95.7312 23.5328 97.0785 25.7032 98.8659 27.4699C100.653 29.2366 102.83 30.5494 105.217 31.3003C107.604 32.0512 110.133 32.2188 112.596 31.7894C115.059 31.3599 117.387 30.3457 119.387 28.83C119.386 29.2449 119.466 29.6559 119.623 30.0394C119.78 30.423 120.01 30.7714 120.3 31.0648C120.59 31.3582 120.935 31.5908 121.314 31.7492C121.694 31.9076 122.1 31.9886 122.511 31.9877H122.592C123.005 31.9922 123.415 31.9139 123.797 31.7572C124.18 31.6006 124.529 31.3687 124.822 31.075C125.116 30.7813 125.349 30.4317 125.508 30.0463C125.667 29.661 125.749 29.2475 125.749 28.83V16.3083C125.761 14.1847 125.358 12.0798 124.563 10.1139C123.769 8.14805 122.599 6.35995 121.12 4.85202C119.641 3.3441 117.882 2.14598 115.944 1.32629C114.007 0.506598 111.928 0.0814469 109.828 0.0751858ZM109.922 25.6175C108.05 25.6175 106.22 25.0563 104.664 24.0049C103.107 22.9534 101.894 21.4589 101.178 19.7104C100.461 17.9619 100.274 16.0379 100.639 14.1817C101.004 12.3255 101.906 10.6205 103.229 9.28225C104.553 7.94401 106.24 7.03265 108.076 6.66343C109.912 6.29421 111.815 6.48371 113.544 7.20796C115.274 7.93221 116.752 9.15869 117.792 10.7323C118.832 12.3059 119.387 14.156 119.387 16.0485C119.387 18.5864 118.39 21.0203 116.615 22.8148C114.84 24.6094 112.432 25.6175 109.922 25.6175Z" fill="white"/>
<path d="M168.68 11.3461V28.7958C168.68 29.6424 168.347 30.4542 167.755 31.0528C167.163 31.6514 166.36 31.9877 165.523 31.9877C164.685 31.9877 163.882 31.6514 163.29 31.0528C162.698 30.4542 162.366 29.6424 162.366 28.7958V11.2709C162.366 10.002 161.867 8.78502 160.979 7.88775C160.092 6.99049 158.888 6.48641 157.633 6.48641C156.418 6.50966 155.26 7.01369 154.408 7.89031C153.556 8.76693 153.078 9.94628 153.076 11.1752V28.7958C153.076 29.6424 152.744 30.4542 152.152 31.0528C151.56 31.6514 150.757 31.9877 149.919 31.9877C149.082 31.9877 148.279 31.6514 147.687 31.0528C147.095 30.4542 146.762 29.6424 146.762 28.7958V11.2709C146.762 10.002 146.263 8.78502 145.376 7.88775C144.488 6.99049 143.285 6.48641 142.029 6.48641C140.815 6.50969 139.657 7.01394 138.807 7.89075C137.956 8.76756 137.479 9.94691 137.479 11.1752V28.7958C137.479 29.6424 137.147 30.4542 136.555 31.0528C135.963 31.6514 135.16 31.9877 134.322 31.9877C133.907 31.9886 133.496 31.9067 133.112 31.7467C132.728 31.5867 132.379 31.3517 132.085 31.0553C131.791 30.7588 131.558 30.4066 131.399 30.0189C131.24 29.6312 131.158 29.2155 131.158 28.7958V11.3461C131.155 8.36403 132.322 5.50237 134.403 3.38926C136.484 1.27614 139.31 0.0842461 142.259 0.0751953C145.147 0.104679 147.904 1.29212 149.926 3.37649C151.954 1.29321 154.715 0.106296 157.606 0.0751953C160.551 0.0914627 163.37 1.28654 165.445 3.39887C167.521 5.51121 168.684 8.36874 168.68 11.3461Z" fill="white"/>
<path d="M186.833 13.0482C180.992 11.6812 180.349 10.7174 180.349 9.07703V8.99501C180.349 7.34094 182.026 6.18583 184.406 6.18583C185.935 6.20082 187.442 6.55549 188.82 7.22474C189.077 7.34094 189.943 7.87407 190.849 8.44137C191.556 8.88731 192.409 9.03474 193.223 8.85198C194.037 8.66921 194.748 8.17084 195.203 7.46397C195.434 7.10495 195.592 6.70287 195.667 6.2813C195.743 5.85974 195.734 5.42717 195.643 5.00894C195.551 4.59071 195.377 4.19524 195.132 3.84571C194.887 3.49617 194.575 3.19961 194.215 2.97339C193.31 2.40608 192.471 1.88662 192.187 1.76359C189.785 0.599845 187.15 0.0105022 184.487 0.041178C178.105 0.041178 173.67 3.90978 173.67 9.45295V9.56914C173.67 15.5156 177.483 17.6071 184.088 19.2201C189.3 20.4368 190.173 21.3868 190.173 23.0614V23.1503C190.173 24.9479 188.361 26.1645 185.663 26.1645C184.118 26.0449 182.606 25.6443 181.201 24.982C179.933 24.3958 178.699 23.7386 177.503 23.0136C176.797 22.5891 175.957 22.4567 175.157 22.6439C174.357 22.8311 173.659 23.3235 173.21 24.0183V24.0593C172.982 24.4151 172.826 24.8131 172.751 25.2302C172.676 25.6473 172.683 26.0754 172.772 26.4896C172.861 26.9039 173.031 27.2962 173.271 27.644C173.511 27.9917 173.816 28.288 174.17 28.5157C175.279 29.1992 176.388 29.9374 176.759 30.1288C179.472 31.5607 182.488 32.3087 185.548 32.3091C192.41 32.3091 196.845 28.5089 196.845 22.6376V22.5556C196.839 17.5456 193.938 14.7979 186.833 13.0482Z" fill="white"/>
<path d="M94.123 38.2763C94.123 38.1639 94.1672 38.0561 94.2458 37.9767C94.3244 37.8972 94.431 37.8525 94.5422 37.8525C94.6534 37.8525 94.76 37.8972 94.8386 37.9767C94.9172 38.0561 94.9614 38.1639 94.9614 38.2763C94.9614 38.3887 94.9172 38.4965 94.8386 38.576C94.76 38.6554 94.6534 38.7001 94.5422 38.7001C94.431 38.7001 94.3244 38.6554 94.2458 38.576C94.1672 38.4965 94.123 38.3887 94.123 38.2763ZM94.2853 40.0602H94.7856V46.116H94.2853V40.0602Z" fill="#828383"/>
<path d="M101.235 42.5683C101.235 41.0988 100.431 40.3401 99.2071 40.3401C97.9835 40.3401 97.0775 41.133 97.0775 42.8144V46.0815H96.584V40.0257H97.0775V41.3107C97.2537 40.8715 97.5619 40.4992 97.9585 40.2466C98.3552 39.994 98.8203 39.8737 99.2883 39.9027C100.64 39.9027 101.702 40.7229 101.702 42.5341V46.0815H101.215L101.235 42.5683Z" fill="#828383"/>
<path d="M106.068 39.9506C106.707 39.8829 107.348 40.0613 107.863 40.4502C108.378 40.8391 108.729 41.41 108.846 42.0489H108.326C108.222 41.543 107.938 41.0932 107.528 40.7847C107.118 40.4761 106.611 40.3301 106.102 40.3743C104.817 40.3743 103.708 41.2355 103.708 43.0468C103.708 44.8581 104.817 45.7398 106.102 45.7398C106.611 45.7856 107.119 45.6402 107.53 45.3313C107.94 45.0225 108.223 44.5718 108.326 44.0652H108.846C108.725 44.6961 108.378 45.2597 107.872 45.6482C107.365 46.0366 106.735 46.2225 106.102 46.1704C104.411 46.1704 103.201 44.9879 103.201 43.0468C103.201 41.1057 104.378 39.9506 106.068 39.9506Z" fill="#828383"/>
<path d="M112.903 46.1702C111.227 46.1702 109.996 44.9878 109.996 43.0466C109.996 41.1055 111.206 39.9504 112.903 39.9504C113.265 39.9277 113.628 39.9811 113.969 40.1071C114.31 40.2331 114.621 40.4291 114.884 40.6827C115.146 40.9362 115.353 41.242 115.493 41.5806C115.633 41.9192 115.702 42.2834 115.695 42.6502C115.707 42.8506 115.707 43.0514 115.695 43.2517H110.523C110.505 43.5764 110.553 43.9016 110.665 44.2066C110.776 44.5116 110.95 44.7898 111.173 45.0236C111.397 45.2574 111.666 45.4418 111.964 45.5651C112.262 45.6883 112.582 45.7478 112.903 45.7396C113.409 45.787 113.914 45.6466 114.325 45.3447C114.735 45.0428 115.023 44.6001 115.134 44.0992H115.648C115.52 44.7238 115.17 45.2794 114.664 45.6609C114.158 46.0425 113.532 46.2236 112.903 46.1702ZM110.503 42.8348H115.195C115.233 42.5141 115.201 42.1888 115.101 41.8819C115.001 41.5751 114.836 41.2943 114.617 41.0595C114.397 40.8246 114.129 40.6415 113.832 40.523C113.535 40.4046 113.215 40.3538 112.896 40.3742C112.577 40.3652 112.26 40.4232 111.964 40.5445C111.668 40.6658 111.4 40.8478 111.177 41.079C110.954 41.3102 110.781 41.5855 110.668 41.8877C110.556 42.1899 110.506 42.5124 110.523 42.8348H110.503Z" fill="#828383"/>
<path d="M120.246 39.95C120.645 39.9377 121.042 40.0111 121.411 40.1656C121.78 40.3201 122.112 40.552 122.385 40.846C122.659 41.14 122.868 41.4894 122.997 41.8711C123.127 42.2527 123.176 42.658 123.139 43.0599C123.139 44.9669 121.922 46.1835 120.246 46.1835C119.703 46.2087 119.166 46.0605 118.711 45.76C118.256 45.4594 117.906 45.0218 117.71 44.5089V48.9517H117.217V40.0662H117.71V41.6246C117.902 41.1093 118.251 40.6692 118.707 40.3681C119.163 40.067 119.702 39.9205 120.246 39.95ZM120.171 40.3874C119.494 40.4221 118.856 40.7184 118.389 41.2152C117.922 41.7119 117.661 42.3711 117.661 43.0565C117.661 43.7419 117.922 44.4011 118.389 44.8978C118.856 45.3946 119.494 45.6909 120.171 45.7256C121.625 45.7256 122.632 44.7208 122.632 43.0462C122.632 41.3717 121.625 40.3874 120.171 40.3874Z" fill="#828383"/>
<path d="M124.884 40.4636H123.979V40.0262H124.884V38.4883H125.378V40.0262H127.156V40.4636H125.378V44.4689C125.378 45.3779 125.675 45.6377 126.48 45.6377H127.156V46.0819H126.426C125.398 46.0819 124.905 45.6582 124.905 44.4689L124.884 40.4636Z" fill="#828383"/>
<path d="M128.298 38.2763C128.29 38.2166 128.295 38.156 128.313 38.0984C128.33 38.0409 128.36 37.9878 128.399 37.9426C128.438 37.8974 128.487 37.8612 128.541 37.8364C128.595 37.8116 128.654 37.7988 128.714 37.7988C128.773 37.7988 128.832 37.8116 128.886 37.8364C128.94 37.8612 128.989 37.8974 129.028 37.9426C129.068 37.9878 129.097 38.0409 129.114 38.0984C129.132 38.156 129.137 38.2166 129.129 38.2763C129.129 38.3887 129.085 38.4965 129.007 38.576C128.928 38.6554 128.821 38.7001 128.71 38.7001C128.599 38.7001 128.492 38.6554 128.414 38.576C128.335 38.4965 128.291 38.3887 128.291 38.2763H128.298ZM128.467 40.0602H128.96V46.116H128.453L128.467 40.0602Z" fill="#828383"/>
<path d="M133.415 46.17C133.014 46.1818 132.616 46.1082 132.245 45.9541C131.874 45.8 131.54 45.5688 131.263 45.2756C130.986 44.9823 130.774 44.6336 130.639 44.2519C130.504 43.8702 130.45 43.4642 130.481 43.0601C130.507 42.4754 130.703 41.9114 131.044 41.4382C131.385 40.9651 131.856 40.6036 132.398 40.3988C132.941 40.194 133.531 40.1548 134.095 40.2861C134.659 40.4174 135.173 40.7135 135.572 41.1375C135.971 41.5615 136.239 42.0948 136.341 42.671C136.442 43.2472 136.375 43.841 136.146 44.3787C135.916 44.9163 135.536 45.374 135.052 45.6949C134.568 46.0158 134.001 46.1858 133.422 46.1837L133.415 46.17ZM133.415 45.7258C133.757 45.736 134.097 45.6727 134.412 45.5401C134.728 45.4075 135.012 45.2086 135.246 44.9565C135.48 44.7045 135.659 44.4051 135.769 44.0782C135.88 43.7513 135.921 43.4043 135.89 43.0601C135.907 42.7238 135.857 42.3874 135.741 42.0714C135.626 41.7555 135.448 41.4665 135.219 41.2222C134.99 40.9779 134.714 40.7833 134.408 40.6504C134.102 40.5174 133.772 40.4489 133.439 40.4489C133.106 40.4489 132.776 40.5174 132.47 40.6504C132.164 40.7833 131.888 40.9779 131.658 41.2222C131.429 41.4665 131.251 41.7555 131.136 42.0714C131.021 42.3874 130.971 42.7238 130.988 43.0601C130.981 44.8919 132.158 45.7258 133.415 45.7258Z" fill="#828383"/>
<path d="M142.522 42.5685C142.522 41.099 141.717 40.3403 140.494 40.3403C139.27 40.3403 138.364 41.1331 138.364 42.8146V46.0817H137.918V40.0259H138.418V41.3109C138.592 40.8715 138.899 40.499 139.295 40.2462C139.691 39.9934 140.155 39.8732 140.622 39.9029C141.974 39.9029 143.036 40.723 143.036 42.5343V46.0817H142.549L142.522 42.5685Z" fill="#828383"/>
<path d="M148.121 40.4636H147.215V40.0262H148.121V38.4883H148.614V40.0262H150.392V40.4636H148.614V44.4689C148.614 45.3779 148.912 45.6377 149.716 45.6377H150.392V46.0819H149.642C148.614 46.0819 148.121 45.6582 148.121 44.4689V40.4636Z" fill="#828383"/>
<path d="M154.34 46.1699C153.524 46.1699 152.742 45.8422 152.165 45.259C151.588 44.6758 151.264 43.8847 151.264 43.0599C151.264 42.2351 151.588 41.4441 152.165 40.8609C152.742 40.2777 153.524 39.95 154.34 39.95C154.743 39.9322 155.146 40.0013 155.521 40.1529C155.896 40.3045 156.235 40.535 156.515 40.8292C156.795 41.1233 157.01 41.4744 157.145 41.859C157.281 42.2436 157.334 42.653 157.301 43.0599C157.329 43.4656 157.272 43.8727 157.134 44.2549C156.997 44.637 156.782 44.9858 156.503 45.2788C156.224 45.5718 155.887 45.8025 155.515 45.9559C155.142 46.1094 154.742 46.1823 154.34 46.1699ZM154.34 45.7256C154.681 45.7348 155.02 45.6708 155.335 45.5377C155.65 45.4047 155.933 45.2056 156.166 44.9537C156.4 44.7018 156.577 44.4028 156.688 44.0763C156.798 43.7499 156.839 43.4035 156.807 43.0599C156.833 42.7186 156.788 42.3758 156.676 42.0528C156.564 41.7298 156.387 41.4336 156.157 41.1828C155.926 40.932 155.647 40.7319 155.337 40.5951C155.027 40.4583 154.692 40.3877 154.353 40.3877C154.015 40.3877 153.68 40.4583 153.37 40.5951C153.059 40.7319 152.78 40.932 152.55 41.1828C152.32 41.4336 152.143 41.7298 152.031 42.0528C151.919 42.3758 151.874 42.7186 151.899 43.0599C151.899 44.8917 153.082 45.7256 154.34 45.7256Z" fill="#828383"/>
<path d="M161.615 38.2763C161.615 38.1411 161.655 38.0089 161.729 37.8965C161.803 37.7841 161.909 37.6965 162.033 37.6448C162.156 37.5931 162.292 37.5795 162.423 37.6059C162.554 37.6323 162.675 37.6974 162.769 37.793C162.864 37.8886 162.928 38.0103 162.954 38.1429C162.98 38.2755 162.967 38.4129 162.916 38.5378C162.865 38.6627 162.778 38.7695 162.667 38.8446C162.556 38.9197 162.425 38.9598 162.291 38.9598C162.112 38.9598 161.94 38.8878 161.813 38.7596C161.686 38.6314 161.615 38.4575 161.615 38.2763ZM161.784 39.9577H162.785V46.0682H161.784V39.9577Z" fill="#828383"/>
<path d="M168.916 42.6231C168.916 41.3791 168.24 40.7435 167.225 40.7435C166.211 40.7435 165.495 41.3859 165.495 42.7051V46.0816H164.494V39.9711H165.495V40.846C165.709 40.5294 166 40.2731 166.339 40.1009C166.679 39.9288 167.056 39.8465 167.435 39.8617C167.775 39.8409 168.116 39.8954 168.433 40.0212C168.751 40.1471 169.037 40.3414 169.273 40.5906C169.508 40.8397 169.687 41.1378 169.797 41.4641C169.907 41.7903 169.945 42.1368 169.909 42.4795V46.0816H168.916V42.6231Z" fill="#828383"/>
<path d="M171.721 40.812H170.943V39.9713H171.721V39.5407C171.721 38.1737 172.397 37.5654 173.925 37.5654V38.413C173.019 38.413 172.721 38.7479 172.721 39.5407V39.9713H176.149V46.0818H175.169V40.812H172.742V46.0818H171.721V40.812ZM175 38.2763C175 38.1411 175.039 38.0089 175.114 37.8965C175.188 37.7841 175.294 37.6965 175.417 37.6448C175.541 37.5931 175.677 37.5795 175.808 37.6059C175.939 37.6323 176.059 37.6974 176.154 37.793C176.248 37.8886 176.313 38.0103 176.339 38.1429C176.365 38.2755 176.352 38.4129 176.3 38.5378C176.249 38.6627 176.163 38.7695 176.051 38.8446C175.94 38.9197 175.81 38.9598 175.676 38.9598C175.497 38.9598 175.325 38.8878 175.198 38.7596C175.071 38.6314 175 38.4575 175 38.2763Z" fill="#828383"/>
<path d="M182.269 42.6231C182.269 41.3792 181.593 40.7435 180.586 40.7435C179.578 40.7435 178.855 41.386 178.855 42.7052V46.0816H177.848V39.9712H178.855V40.846C179.068 40.5281 179.359 40.2707 179.698 40.0984C180.038 39.9261 180.416 39.8446 180.795 39.8618C181.135 39.8408 181.476 39.8952 181.793 40.0211C182.11 40.1471 182.396 40.3415 182.631 40.5908C182.866 40.8401 183.044 41.1383 183.154 41.4646C183.263 41.7908 183.3 42.1372 183.263 42.4796V46.0816H182.269V42.6231Z" fill="#828383"/>
<path d="M184.742 38.2763C184.742 38.1411 184.782 38.0089 184.856 37.8965C184.93 37.7841 185.036 37.6965 185.16 37.6448C185.283 37.5931 185.419 37.5795 185.55 37.6059C185.681 37.6323 185.802 37.6974 185.896 37.793C185.991 37.8886 186.055 38.0103 186.081 38.1429C186.107 38.2755 186.094 38.4129 186.043 38.5378C185.992 38.6627 185.905 38.7695 185.794 38.8446C185.683 38.9197 185.552 38.9598 185.418 38.9598C185.239 38.9598 185.067 38.8878 184.94 38.7596C184.813 38.6314 184.742 38.4575 184.742 38.2763ZM184.904 39.9577H185.919V46.0682H184.904V39.9577Z" fill="#828383"/>
<path d="M187.839 40.8122H187.055V39.9715H187.839V38.4336H188.846V39.9715H190.422V40.8122H188.846V44.4279C188.846 45.0294 189.063 45.2481 189.685 45.2481H190.422V46.1024H189.516C188.447 46.1024 187.839 45.6582 187.839 44.4279V40.8122Z" fill="#828383"/>
<path d="M195.804 39.9707H196.838L193.201 48.9587H192.167L193.357 46.0128L190.916 39.9707H192.004L193.904 44.9192L195.804 39.9707Z" fill="#828383"/>
</g>
<defs>
<clipPath id="clip0_1_27">
<rect width="197" height="49" fill="white"/>
</clipPath>
</defs>
</svg>
